<?xml version="1.0" encoding="UTF-8"?>
<svg width="36px" height="36px" viewBox="0 0 36 36" xmlns="http://www.w3.org/2000/svg">
  <g fill="#333333">
    <path d="M13.5549496,22.3204779 C15.1306325,22.3204779 16.3324244,21.8130546 17.2404451,20.905034 C18.3087046,19.8367744 18.7627149,18.0474397 18.7627149,15.9910401 L18.7627149,5.76245494 L20.952647,5.76245494 L20.952647,4.42713051 L14.4896767,4.42713051 L14.4896767,5.76245494 L17.2404451,5.76245494 L17.2404451,15.9643336 C17.2404451,17.7536683 16.8932607,19.0889927 16.1187725,19.8634809 C15.4511103,20.5311431 14.5697962,20.8783275 13.5549496,20.8783275 C11.49855,20.8783275 10.350171,19.4094706 10.403584,18.50145 C11.1246592,18.4213305 11.5252565,17.8872008 11.5252565,17.299658 C11.5252565,16.5785828 10.9110073,16.1245725 10.350171,16.1245725 C9.46885687,16.1245725 8.82790115,16.9524737 8.82790115,18.0741462 C8.82790115,20.4777302 10.9911267,22.3204779 13.5549496,22.3204779 C13.5549496,22.3204779 10.9911267,22.3204779 13.5549496,22.3204779 L13.5549496,22.3204779 L13.5549496,22.3204779 Z M13.5549496,22.3204779"></path>
    <path d="M18.4866468,29.2937714 C21.6647189,29.2937714 24.0683029,27.3976107 24.0683029,24.406484 C24.0683029,21.5488897 21.9317838,20.4539237 19.154309,19.3589576 C16.750725,18.397524 15.0148032,17.5429164 15.0148032,15.5132233 C15.0148032,13.750595 16.4302471,12.4686836 18.7002987,12.4686836 C19.7952647,12.4686836 21.3175345,12.8959874 21.7982513,13.5102366 C21.5578929,13.7773015 21.3175345,14.1778988 21.3175345,14.6052027 C21.3175345,15.2728649 21.8249578,15.7802881 22.5193265,15.7802881 C23.1602823,15.7802881 23.7211185,15.2995714 23.7211185,14.4449637 C23.7211185,12.7357484 21.4777735,11.1066526 18.7537116,11.1066526 C15.5756395,11.1066526 13.5192399,12.9761068 13.5192399,15.6200492 C13.5192399,18.557763 15.7892914,19.6794355 18.7270052,20.8278145 C20.8101113,21.6557156 22.5727395,22.5370298 22.5727395,24.5133099 C22.5727395,26.5697095 21.0504697,27.9317405 18.5400597,27.9317405 C16.7240185,27.9317405 15.2818681,27.3441977 14.6943254,26.6765355 C14.9880968,26.3560576 15.2284551,25.9554603 15.2284551,25.448037 C15.2284551,24.8337878 14.7477384,24.353071 14.0800761,24.353071 C13.4124139,24.353071 12.8515777,24.9406137 12.8515777,25.8486343 C12.8515777,27.3709042 15.0682162,29.2937714 18.4866468,29.2937714 C18.4866468,29.2937714 15.0682162,29.2937714 18.4866468,29.2937714 L18.4866468,29.2937714 L18.4866468,29.2937714 Z M18.4866468,29.2937714"></path>
  </g>
</svg>
